<mxfile host="app.diagrams.net" agent="Mozilla/5.0 (Macintosh; Intel Mac OS X 10_15_7) AppleWebKit/537.36 (KHTML, like Gecko) Chrome/128.0.0.0 Safari/537.36" version="24.7.10">
  <diagram name="Page-1" id="IPahZ8ge9Y4v5QIWWnr-">
    <mxGraphModel dx="755" dy="514" grid="1" gridSize="10" guides="1" tooltips="1" connect="1" arrows="1" fold="1" page="1" pageScale="1" pageWidth="850" pageHeight="1100" math="0" shadow="0">
      <root>
        <mxCell id="0" />
        <mxCell id="1" parent="0" />
        <mxCell id="GIZqvgro0386pKt4__yg-1" value="" style="endArrow=none;html=1;rounded=0;fillColor=#dae8fc;strokeColor=#6c8ebf;" edge="1" parent="1">
          <mxGeometry width="50" height="50" relative="1" as="geometry">
            <mxPoint x="369" y="530" as="sourcePoint" />
            <mxPoint x="369" y="510" as="targetPoint" />
          </mxGeometry>
        </mxCell>
        <mxCell id="GIZqvgro0386pKt4__yg-2" value="" style="endArrow=none;html=1;rounded=0;fillColor=#dae8fc;strokeColor=#6c8ebf;" edge="1" parent="1">
          <mxGeometry width="50" height="50" relative="1" as="geometry">
            <mxPoint x="369" y="510" as="sourcePoint" />
            <mxPoint x="409" y="510" as="targetPoint" />
          </mxGeometry>
        </mxCell>
        <mxCell id="GIZqvgro0386pKt4__yg-17" value="" style="endArrow=none;html=1;rounded=0;fillColor=#ffe6cc;strokeColor=#d79b00;" edge="1" parent="1">
          <mxGeometry width="50" height="50" relative="1" as="geometry">
            <mxPoint x="320" y="500" as="sourcePoint" />
            <mxPoint x="320" y="480" as="targetPoint" />
          </mxGeometry>
        </mxCell>
        <mxCell id="GIZqvgro0386pKt4__yg-18" value="" style="endArrow=none;html=1;rounded=0;fillColor=#ffe6cc;strokeColor=#d79b00;" edge="1" parent="1">
          <mxGeometry width="50" height="50" relative="1" as="geometry">
            <mxPoint x="320" y="480" as="sourcePoint" />
            <mxPoint x="340" y="480" as="targetPoint" />
          </mxGeometry>
        </mxCell>
        <mxCell id="GIZqvgro0386pKt4__yg-19" value="" style="endArrow=none;html=1;rounded=0;fillColor=#ffe6cc;strokeColor=#d79b00;" edge="1" parent="1">
          <mxGeometry width="50" height="50" relative="1" as="geometry">
            <mxPoint x="340" y="480" as="sourcePoint" />
            <mxPoint x="340" y="500" as="targetPoint" />
          </mxGeometry>
        </mxCell>
        <mxCell id="GIZqvgro0386pKt4__yg-54" value="" style="endArrow=none;html=1;rounded=0;fillColor=#ffe6cc;strokeColor=#d79b00;" edge="1" parent="1">
          <mxGeometry width="50" height="50" relative="1" as="geometry">
            <mxPoint x="340" y="500" as="sourcePoint" />
            <mxPoint x="360" y="500" as="targetPoint" />
          </mxGeometry>
        </mxCell>
        <mxCell id="GIZqvgro0386pKt4__yg-55" value="" style="endArrow=none;html=1;rounded=0;fillColor=#ffe6cc;strokeColor=#d79b00;" edge="1" parent="1">
          <mxGeometry width="50" height="50" relative="1" as="geometry">
            <mxPoint x="360" y="500" as="sourcePoint" />
            <mxPoint x="360" y="480" as="targetPoint" />
          </mxGeometry>
        </mxCell>
        <mxCell id="GIZqvgro0386pKt4__yg-56" value="" style="endArrow=none;html=1;rounded=0;fillColor=#ffe6cc;strokeColor=#d79b00;" edge="1" parent="1">
          <mxGeometry width="50" height="50" relative="1" as="geometry">
            <mxPoint x="360" y="480" as="sourcePoint" />
            <mxPoint x="380" y="480" as="targetPoint" />
          </mxGeometry>
        </mxCell>
        <mxCell id="GIZqvgro0386pKt4__yg-91" value="" style="endArrow=none;html=1;rounded=0;fillColor=#dae8fc;strokeColor=#6c8ebf;" edge="1" parent="1">
          <mxGeometry width="50" height="50" relative="1" as="geometry">
            <mxPoint x="409" y="530" as="sourcePoint" />
            <mxPoint x="409" y="510" as="targetPoint" />
          </mxGeometry>
        </mxCell>
        <mxCell id="GIZqvgro0386pKt4__yg-92" value="" style="endArrow=none;html=1;rounded=0;fillColor=#dae8fc;strokeColor=#6c8ebf;" edge="1" parent="1">
          <mxGeometry width="50" height="50" relative="1" as="geometry">
            <mxPoint x="409" y="530" as="sourcePoint" />
            <mxPoint x="449" y="530" as="targetPoint" />
          </mxGeometry>
        </mxCell>
        <mxCell id="GIZqvgro0386pKt4__yg-93" value="" style="endArrow=none;html=1;rounded=0;fillColor=#ffe6cc;strokeColor=#d79b00;" edge="1" parent="1">
          <mxGeometry width="50" height="50" relative="1" as="geometry">
            <mxPoint x="380" y="480" as="sourcePoint" />
            <mxPoint x="380" y="500" as="targetPoint" />
          </mxGeometry>
        </mxCell>
        <mxCell id="GIZqvgro0386pKt4__yg-94" value="" style="endArrow=none;html=1;rounded=0;fillColor=#ffe6cc;strokeColor=#d79b00;" edge="1" parent="1">
          <mxGeometry width="50" height="50" relative="1" as="geometry">
            <mxPoint x="380" y="500" as="sourcePoint" />
            <mxPoint x="400" y="500" as="targetPoint" />
          </mxGeometry>
        </mxCell>
        <mxCell id="GIZqvgro0386pKt4__yg-95" value="" style="endArrow=none;html=1;rounded=0;fillColor=#ffe6cc;strokeColor=#d79b00;" edge="1" parent="1">
          <mxGeometry width="50" height="50" relative="1" as="geometry">
            <mxPoint x="400" y="500" as="sourcePoint" />
            <mxPoint x="400" y="480" as="targetPoint" />
          </mxGeometry>
        </mxCell>
        <mxCell id="GIZqvgro0386pKt4__yg-96" value="" style="endArrow=none;html=1;rounded=0;fillColor=#ffe6cc;strokeColor=#d79b00;" edge="1" parent="1">
          <mxGeometry width="50" height="50" relative="1" as="geometry">
            <mxPoint x="400" y="480" as="sourcePoint" />
            <mxPoint x="420" y="480" as="targetPoint" />
          </mxGeometry>
        </mxCell>
        <mxCell id="GIZqvgro0386pKt4__yg-97" value="" style="endArrow=none;html=1;rounded=0;fillColor=#ffe6cc;strokeColor=#d79b00;" edge="1" parent="1">
          <mxGeometry width="50" height="50" relative="1" as="geometry">
            <mxPoint x="420" y="480" as="sourcePoint" />
            <mxPoint x="420" y="500" as="targetPoint" />
          </mxGeometry>
        </mxCell>
        <mxCell id="GIZqvgro0386pKt4__yg-98" value="" style="endArrow=none;html=1;rounded=0;fillColor=#ffe6cc;strokeColor=#d79b00;" edge="1" parent="1">
          <mxGeometry width="50" height="50" relative="1" as="geometry">
            <mxPoint x="420" y="500" as="sourcePoint" />
            <mxPoint x="440" y="500" as="targetPoint" />
          </mxGeometry>
        </mxCell>
        <mxCell id="GIZqvgro0386pKt4__yg-99" value="" style="endArrow=none;html=1;rounded=0;fillColor=#ffe6cc;strokeColor=#d79b00;" edge="1" parent="1">
          <mxGeometry width="50" height="50" relative="1" as="geometry">
            <mxPoint x="440" y="500" as="sourcePoint" />
            <mxPoint x="440" y="480" as="targetPoint" />
          </mxGeometry>
        </mxCell>
        <mxCell id="GIZqvgro0386pKt4__yg-100" value="" style="endArrow=none;html=1;rounded=0;fillColor=#ffe6cc;strokeColor=#d79b00;" edge="1" parent="1">
          <mxGeometry width="50" height="50" relative="1" as="geometry">
            <mxPoint x="440" y="480" as="sourcePoint" />
            <mxPoint x="460" y="480" as="targetPoint" />
          </mxGeometry>
        </mxCell>
        <mxCell id="GIZqvgro0386pKt4__yg-101" value="" style="endArrow=none;html=1;rounded=0;fillColor=#ffe6cc;strokeColor=#d79b00;" edge="1" parent="1">
          <mxGeometry width="50" height="50" relative="1" as="geometry">
            <mxPoint x="460" y="480" as="sourcePoint" />
            <mxPoint x="460" y="500" as="targetPoint" />
          </mxGeometry>
        </mxCell>
        <mxCell id="GIZqvgro0386pKt4__yg-102" value="" style="endArrow=none;html=1;rounded=0;fillColor=#ffe6cc;strokeColor=#d79b00;" edge="1" parent="1">
          <mxGeometry width="50" height="50" relative="1" as="geometry">
            <mxPoint x="460" y="500" as="sourcePoint" />
            <mxPoint x="480" y="500" as="targetPoint" />
          </mxGeometry>
        </mxCell>
        <mxCell id="GIZqvgro0386pKt4__yg-103" value="" style="endArrow=none;html=1;rounded=0;fillColor=#ffe6cc;strokeColor=#d79b00;" edge="1" parent="1">
          <mxGeometry width="50" height="50" relative="1" as="geometry">
            <mxPoint x="480" y="500" as="sourcePoint" />
            <mxPoint x="480" y="480" as="targetPoint" />
          </mxGeometry>
        </mxCell>
        <mxCell id="GIZqvgro0386pKt4__yg-104" value="" style="endArrow=none;html=1;rounded=0;fillColor=#ffe6cc;strokeColor=#d79b00;" edge="1" parent="1">
          <mxGeometry width="50" height="50" relative="1" as="geometry">
            <mxPoint x="480" y="480" as="sourcePoint" />
            <mxPoint x="500" y="480" as="targetPoint" />
          </mxGeometry>
        </mxCell>
        <mxCell id="GIZqvgro0386pKt4__yg-105" value="" style="endArrow=none;html=1;rounded=0;fillColor=#ffe6cc;strokeColor=#d79b00;" edge="1" parent="1">
          <mxGeometry width="50" height="50" relative="1" as="geometry">
            <mxPoint x="500" y="480" as="sourcePoint" />
            <mxPoint x="500" y="500" as="targetPoint" />
          </mxGeometry>
        </mxCell>
        <mxCell id="GIZqvgro0386pKt4__yg-106" value="" style="endArrow=none;html=1;rounded=0;fillColor=#ffe6cc;strokeColor=#d79b00;" edge="1" parent="1">
          <mxGeometry width="50" height="50" relative="1" as="geometry">
            <mxPoint x="500" y="500" as="sourcePoint" />
            <mxPoint x="520" y="500" as="targetPoint" />
          </mxGeometry>
        </mxCell>
        <mxCell id="GIZqvgro0386pKt4__yg-107" value="" style="endArrow=none;html=1;rounded=0;fillColor=#ffe6cc;strokeColor=#d79b00;" edge="1" parent="1">
          <mxGeometry width="50" height="50" relative="1" as="geometry">
            <mxPoint x="520" y="500" as="sourcePoint" />
            <mxPoint x="520" y="480" as="targetPoint" />
          </mxGeometry>
        </mxCell>
        <mxCell id="GIZqvgro0386pKt4__yg-108" value="" style="endArrow=none;html=1;rounded=0;fillColor=#ffe6cc;strokeColor=#d79b00;" edge="1" parent="1">
          <mxGeometry width="50" height="50" relative="1" as="geometry">
            <mxPoint x="520" y="480" as="sourcePoint" />
            <mxPoint x="540" y="480" as="targetPoint" />
          </mxGeometry>
        </mxCell>
        <mxCell id="GIZqvgro0386pKt4__yg-109" value="" style="endArrow=none;html=1;rounded=0;fillColor=#ffe6cc;strokeColor=#d79b00;" edge="1" parent="1">
          <mxGeometry width="50" height="50" relative="1" as="geometry">
            <mxPoint x="540" y="480" as="sourcePoint" />
            <mxPoint x="540" y="500" as="targetPoint" />
          </mxGeometry>
        </mxCell>
        <mxCell id="GIZqvgro0386pKt4__yg-110" value="" style="endArrow=none;html=1;rounded=0;fillColor=#ffe6cc;strokeColor=#d79b00;" edge="1" parent="1">
          <mxGeometry width="50" height="50" relative="1" as="geometry">
            <mxPoint x="540" y="500" as="sourcePoint" />
            <mxPoint x="560" y="500" as="targetPoint" />
          </mxGeometry>
        </mxCell>
        <mxCell id="GIZqvgro0386pKt4__yg-111" value="" style="endArrow=none;html=1;rounded=0;fillColor=#ffe6cc;strokeColor=#d79b00;" edge="1" parent="1">
          <mxGeometry width="50" height="50" relative="1" as="geometry">
            <mxPoint x="560" y="500" as="sourcePoint" />
            <mxPoint x="560" y="480" as="targetPoint" />
          </mxGeometry>
        </mxCell>
        <mxCell id="GIZqvgro0386pKt4__yg-112" value="" style="endArrow=none;html=1;rounded=0;fillColor=#ffe6cc;strokeColor=#d79b00;" edge="1" parent="1">
          <mxGeometry width="50" height="50" relative="1" as="geometry">
            <mxPoint x="560" y="480" as="sourcePoint" />
            <mxPoint x="580" y="480" as="targetPoint" />
          </mxGeometry>
        </mxCell>
        <mxCell id="GIZqvgro0386pKt4__yg-113" value="" style="endArrow=none;html=1;rounded=0;fillColor=#ffe6cc;strokeColor=#d79b00;" edge="1" parent="1">
          <mxGeometry width="50" height="50" relative="1" as="geometry">
            <mxPoint x="580" y="480" as="sourcePoint" />
            <mxPoint x="580" y="500" as="targetPoint" />
          </mxGeometry>
        </mxCell>
        <mxCell id="GIZqvgro0386pKt4__yg-114" value="" style="endArrow=none;html=1;rounded=0;fillColor=#ffe6cc;strokeColor=#d79b00;" edge="1" parent="1">
          <mxGeometry width="50" height="50" relative="1" as="geometry">
            <mxPoint x="580" y="500" as="sourcePoint" />
            <mxPoint x="600" y="500" as="targetPoint" />
          </mxGeometry>
        </mxCell>
        <mxCell id="GIZqvgro0386pKt4__yg-115" value="" style="endArrow=none;html=1;rounded=0;fillColor=#ffe6cc;strokeColor=#d79b00;" edge="1" parent="1">
          <mxGeometry width="50" height="50" relative="1" as="geometry">
            <mxPoint x="600" y="500" as="sourcePoint" />
            <mxPoint x="600" y="480" as="targetPoint" />
          </mxGeometry>
        </mxCell>
        <mxCell id="GIZqvgro0386pKt4__yg-116" value="" style="endArrow=none;html=1;rounded=0;fillColor=#ffe6cc;strokeColor=#d79b00;" edge="1" parent="1">
          <mxGeometry width="50" height="50" relative="1" as="geometry">
            <mxPoint x="600" y="480" as="sourcePoint" />
            <mxPoint x="620" y="480" as="targetPoint" />
          </mxGeometry>
        </mxCell>
        <mxCell id="GIZqvgro0386pKt4__yg-117" value="" style="endArrow=none;html=1;rounded=0;fillColor=#ffe6cc;strokeColor=#d79b00;" edge="1" parent="1">
          <mxGeometry width="50" height="50" relative="1" as="geometry">
            <mxPoint x="620" y="480" as="sourcePoint" />
            <mxPoint x="620" y="500" as="targetPoint" />
          </mxGeometry>
        </mxCell>
        <mxCell id="GIZqvgro0386pKt4__yg-118" value="" style="endArrow=none;html=1;rounded=0;fillColor=#ffe6cc;strokeColor=#d79b00;" edge="1" parent="1">
          <mxGeometry width="50" height="50" relative="1" as="geometry">
            <mxPoint x="620" y="500" as="sourcePoint" />
            <mxPoint x="640" y="500" as="targetPoint" />
          </mxGeometry>
        </mxCell>
        <mxCell id="GIZqvgro0386pKt4__yg-119" value="" style="endArrow=none;html=1;rounded=0;fillColor=#ffe6cc;strokeColor=#d79b00;" edge="1" parent="1">
          <mxGeometry width="50" height="50" relative="1" as="geometry">
            <mxPoint x="640" y="500" as="sourcePoint" />
            <mxPoint x="640" y="480" as="targetPoint" />
          </mxGeometry>
        </mxCell>
        <mxCell id="GIZqvgro0386pKt4__yg-120" value="" style="endArrow=none;html=1;rounded=0;fillColor=#ffe6cc;strokeColor=#d79b00;" edge="1" parent="1">
          <mxGeometry width="50" height="50" relative="1" as="geometry">
            <mxPoint x="640" y="480" as="sourcePoint" />
            <mxPoint x="660" y="480" as="targetPoint" />
          </mxGeometry>
        </mxCell>
        <mxCell id="GIZqvgro0386pKt4__yg-121" value="" style="endArrow=none;html=1;rounded=0;fillColor=#dae8fc;strokeColor=#6c8ebf;" edge="1" parent="1">
          <mxGeometry width="50" height="50" relative="1" as="geometry">
            <mxPoint x="449" y="530" as="sourcePoint" />
            <mxPoint x="449" y="510" as="targetPoint" />
          </mxGeometry>
        </mxCell>
        <mxCell id="GIZqvgro0386pKt4__yg-122" value="" style="endArrow=none;html=1;rounded=0;fillColor=#dae8fc;strokeColor=#6c8ebf;" edge="1" parent="1">
          <mxGeometry width="50" height="50" relative="1" as="geometry">
            <mxPoint x="449" y="510" as="sourcePoint" />
            <mxPoint x="489" y="510" as="targetPoint" />
          </mxGeometry>
        </mxCell>
        <mxCell id="GIZqvgro0386pKt4__yg-123" value="" style="endArrow=none;html=1;rounded=0;fillColor=#dae8fc;strokeColor=#6c8ebf;" edge="1" parent="1">
          <mxGeometry width="50" height="50" relative="1" as="geometry">
            <mxPoint x="489" y="530" as="sourcePoint" />
            <mxPoint x="489" y="510" as="targetPoint" />
          </mxGeometry>
        </mxCell>
        <mxCell id="GIZqvgro0386pKt4__yg-124" value="" style="endArrow=none;html=1;rounded=0;fillColor=#dae8fc;strokeColor=#6c8ebf;" edge="1" parent="1">
          <mxGeometry width="50" height="50" relative="1" as="geometry">
            <mxPoint x="489" y="530" as="sourcePoint" />
            <mxPoint x="529" y="530" as="targetPoint" />
          </mxGeometry>
        </mxCell>
        <mxCell id="GIZqvgro0386pKt4__yg-125" value="" style="endArrow=none;html=1;rounded=0;fillColor=#dae8fc;strokeColor=#6c8ebf;" edge="1" parent="1">
          <mxGeometry width="50" height="50" relative="1" as="geometry">
            <mxPoint x="529" y="530" as="sourcePoint" />
            <mxPoint x="529" y="510" as="targetPoint" />
          </mxGeometry>
        </mxCell>
        <mxCell id="GIZqvgro0386pKt4__yg-126" value="" style="endArrow=none;html=1;rounded=0;fillColor=#dae8fc;strokeColor=#6c8ebf;" edge="1" parent="1">
          <mxGeometry width="50" height="50" relative="1" as="geometry">
            <mxPoint x="529" y="510" as="sourcePoint" />
            <mxPoint x="569" y="510" as="targetPoint" />
          </mxGeometry>
        </mxCell>
        <mxCell id="GIZqvgro0386pKt4__yg-127" value="" style="endArrow=none;html=1;rounded=0;fillColor=#dae8fc;strokeColor=#6c8ebf;" edge="1" parent="1">
          <mxGeometry width="50" height="50" relative="1" as="geometry">
            <mxPoint x="569" y="530" as="sourcePoint" />
            <mxPoint x="569" y="510" as="targetPoint" />
          </mxGeometry>
        </mxCell>
        <mxCell id="GIZqvgro0386pKt4__yg-128" value="" style="endArrow=none;html=1;rounded=0;fillColor=#dae8fc;strokeColor=#6c8ebf;" edge="1" parent="1">
          <mxGeometry width="50" height="50" relative="1" as="geometry">
            <mxPoint x="569" y="530" as="sourcePoint" />
            <mxPoint x="609" y="530" as="targetPoint" />
          </mxGeometry>
        </mxCell>
        <mxCell id="GIZqvgro0386pKt4__yg-129" value="" style="endArrow=none;html=1;rounded=0;fillColor=#dae8fc;strokeColor=#6c8ebf;" edge="1" parent="1">
          <mxGeometry width="50" height="50" relative="1" as="geometry">
            <mxPoint x="609" y="530" as="sourcePoint" />
            <mxPoint x="609" y="510" as="targetPoint" />
          </mxGeometry>
        </mxCell>
        <mxCell id="GIZqvgro0386pKt4__yg-130" value="" style="endArrow=none;html=1;rounded=0;fillColor=#dae8fc;strokeColor=#6c8ebf;" edge="1" parent="1">
          <mxGeometry width="50" height="50" relative="1" as="geometry">
            <mxPoint x="609" y="510" as="sourcePoint" />
            <mxPoint x="649" y="510" as="targetPoint" />
          </mxGeometry>
        </mxCell>
        <mxCell id="GIZqvgro0386pKt4__yg-131" value="" style="endArrow=none;html=1;rounded=0;fillColor=#dae8fc;strokeColor=#6c8ebf;" edge="1" parent="1">
          <mxGeometry width="50" height="50" relative="1" as="geometry">
            <mxPoint x="649" y="530" as="sourcePoint" />
            <mxPoint x="649" y="510" as="targetPoint" />
          </mxGeometry>
        </mxCell>
        <mxCell id="GIZqvgro0386pKt4__yg-132" value="" style="endArrow=none;html=1;rounded=0;fillColor=#dae8fc;strokeColor=#6c8ebf;" edge="1" parent="1">
          <mxGeometry width="50" height="50" relative="1" as="geometry">
            <mxPoint x="649" y="530" as="sourcePoint" />
            <mxPoint x="689" y="530" as="targetPoint" />
          </mxGeometry>
        </mxCell>
        <mxCell id="GIZqvgro0386pKt4__yg-133" value="" style="endArrow=none;dashed=1;html=1;strokeWidth=1;rounded=0;strokeColor=#e40733;" edge="1" parent="1">
          <mxGeometry width="50" height="50" relative="1" as="geometry">
            <mxPoint x="480" y="780" as="sourcePoint" />
            <mxPoint x="480" y="450" as="targetPoint" />
          </mxGeometry>
        </mxCell>
        <mxCell id="GIZqvgro0386pKt4__yg-134" value="" style="endArrow=none;dashed=1;html=1;strokeWidth=1;rounded=0;strokeColor=#e40733;" edge="1" parent="1">
          <mxGeometry width="50" height="50" relative="1" as="geometry">
            <mxPoint x="520" y="780" as="sourcePoint" />
            <mxPoint x="520" y="450" as="targetPoint" />
          </mxGeometry>
        </mxCell>
        <mxCell id="GIZqvgro0386pKt4__yg-135" value="" style="endArrow=none;dashed=1;html=1;strokeWidth=1;rounded=0;strokeColor=#e40733;" edge="1" parent="1">
          <mxGeometry width="50" height="50" relative="1" as="geometry">
            <mxPoint x="560" y="780" as="sourcePoint" />
            <mxPoint x="560" y="450" as="targetPoint" />
          </mxGeometry>
        </mxCell>
        <mxCell id="GIZqvgro0386pKt4__yg-139" value="" style="endArrow=none;dashed=1;html=1;strokeWidth=1;rounded=0;strokeColor=#e40733;" edge="1" parent="1">
          <mxGeometry width="50" height="50" relative="1" as="geometry">
            <mxPoint x="600" y="780" as="sourcePoint" />
            <mxPoint x="600" y="450" as="targetPoint" />
          </mxGeometry>
        </mxCell>
        <mxCell id="GIZqvgro0386pKt4__yg-140" value="" style="endArrow=none;html=1;rounded=0;fillColor=#dae8fc;strokeColor=#6c8ebf;" edge="1" parent="1">
          <mxGeometry width="50" height="50" relative="1" as="geometry">
            <mxPoint x="379" y="560" as="sourcePoint" />
            <mxPoint x="379" y="540" as="targetPoint" />
          </mxGeometry>
        </mxCell>
        <mxCell id="GIZqvgro0386pKt4__yg-141" value="" style="endArrow=none;html=1;rounded=0;fillColor=#dae8fc;strokeColor=#6c8ebf;" edge="1" parent="1">
          <mxGeometry width="50" height="50" relative="1" as="geometry">
            <mxPoint x="379" y="540" as="sourcePoint" />
            <mxPoint x="419" y="540" as="targetPoint" />
          </mxGeometry>
        </mxCell>
        <mxCell id="GIZqvgro0386pKt4__yg-142" value="" style="endArrow=none;html=1;rounded=0;fillColor=#dae8fc;strokeColor=#6c8ebf;" edge="1" parent="1">
          <mxGeometry width="50" height="50" relative="1" as="geometry">
            <mxPoint x="419" y="560" as="sourcePoint" />
            <mxPoint x="419" y="540" as="targetPoint" />
          </mxGeometry>
        </mxCell>
        <mxCell id="GIZqvgro0386pKt4__yg-143" value="" style="endArrow=none;html=1;rounded=0;fillColor=#dae8fc;strokeColor=#6c8ebf;" edge="1" parent="1">
          <mxGeometry width="50" height="50" relative="1" as="geometry">
            <mxPoint x="419" y="560" as="sourcePoint" />
            <mxPoint x="459" y="560" as="targetPoint" />
          </mxGeometry>
        </mxCell>
        <mxCell id="GIZqvgro0386pKt4__yg-144" value="" style="endArrow=none;html=1;rounded=0;fillColor=#dae8fc;strokeColor=#6c8ebf;" edge="1" parent="1">
          <mxGeometry width="50" height="50" relative="1" as="geometry">
            <mxPoint x="459" y="560" as="sourcePoint" />
            <mxPoint x="459" y="540" as="targetPoint" />
          </mxGeometry>
        </mxCell>
        <mxCell id="GIZqvgro0386pKt4__yg-145" value="" style="endArrow=none;html=1;rounded=0;fillColor=#dae8fc;strokeColor=#6c8ebf;" edge="1" parent="1">
          <mxGeometry width="50" height="50" relative="1" as="geometry">
            <mxPoint x="459" y="540" as="sourcePoint" />
            <mxPoint x="499" y="540" as="targetPoint" />
          </mxGeometry>
        </mxCell>
        <mxCell id="GIZqvgro0386pKt4__yg-146" value="" style="endArrow=none;html=1;rounded=0;fillColor=#dae8fc;strokeColor=#6c8ebf;" edge="1" parent="1">
          <mxGeometry width="50" height="50" relative="1" as="geometry">
            <mxPoint x="499" y="560" as="sourcePoint" />
            <mxPoint x="499" y="540" as="targetPoint" />
          </mxGeometry>
        </mxCell>
        <mxCell id="GIZqvgro0386pKt4__yg-147" value="" style="endArrow=none;html=1;rounded=0;fillColor=#dae8fc;strokeColor=#6c8ebf;" edge="1" parent="1">
          <mxGeometry width="50" height="50" relative="1" as="geometry">
            <mxPoint x="499" y="560" as="sourcePoint" />
            <mxPoint x="539" y="560" as="targetPoint" />
          </mxGeometry>
        </mxCell>
        <mxCell id="GIZqvgro0386pKt4__yg-148" value="" style="endArrow=none;html=1;rounded=0;fillColor=#dae8fc;strokeColor=#6c8ebf;" edge="1" parent="1">
          <mxGeometry width="50" height="50" relative="1" as="geometry">
            <mxPoint x="539" y="560" as="sourcePoint" />
            <mxPoint x="539" y="540" as="targetPoint" />
          </mxGeometry>
        </mxCell>
        <mxCell id="GIZqvgro0386pKt4__yg-149" value="" style="endArrow=none;html=1;rounded=0;fillColor=#dae8fc;strokeColor=#6c8ebf;" edge="1" parent="1">
          <mxGeometry width="50" height="50" relative="1" as="geometry">
            <mxPoint x="539" y="540" as="sourcePoint" />
            <mxPoint x="579" y="540" as="targetPoint" />
          </mxGeometry>
        </mxCell>
        <mxCell id="GIZqvgro0386pKt4__yg-150" value="" style="endArrow=none;html=1;rounded=0;fillColor=#dae8fc;strokeColor=#6c8ebf;" edge="1" parent="1">
          <mxGeometry width="50" height="50" relative="1" as="geometry">
            <mxPoint x="579" y="560" as="sourcePoint" />
            <mxPoint x="579" y="540" as="targetPoint" />
          </mxGeometry>
        </mxCell>
        <mxCell id="GIZqvgro0386pKt4__yg-151" value="" style="endArrow=none;html=1;rounded=0;fillColor=#dae8fc;strokeColor=#6c8ebf;" edge="1" parent="1">
          <mxGeometry width="50" height="50" relative="1" as="geometry">
            <mxPoint x="579" y="560" as="sourcePoint" />
            <mxPoint x="619" y="560" as="targetPoint" />
          </mxGeometry>
        </mxCell>
        <mxCell id="GIZqvgro0386pKt4__yg-152" value="" style="endArrow=none;html=1;rounded=0;fillColor=#dae8fc;strokeColor=#6c8ebf;" edge="1" parent="1">
          <mxGeometry width="50" height="50" relative="1" as="geometry">
            <mxPoint x="619" y="560" as="sourcePoint" />
            <mxPoint x="619" y="540" as="targetPoint" />
          </mxGeometry>
        </mxCell>
        <mxCell id="GIZqvgro0386pKt4__yg-153" value="" style="endArrow=none;html=1;rounded=0;fillColor=#dae8fc;strokeColor=#6c8ebf;" edge="1" parent="1">
          <mxGeometry width="50" height="50" relative="1" as="geometry">
            <mxPoint x="619" y="540" as="sourcePoint" />
            <mxPoint x="659" y="540" as="targetPoint" />
          </mxGeometry>
        </mxCell>
        <mxCell id="GIZqvgro0386pKt4__yg-154" value="" style="endArrow=none;html=1;rounded=0;fillColor=#dae8fc;strokeColor=#6c8ebf;" edge="1" parent="1">
          <mxGeometry width="50" height="50" relative="1" as="geometry">
            <mxPoint x="659" y="560" as="sourcePoint" />
            <mxPoint x="659" y="540" as="targetPoint" />
          </mxGeometry>
        </mxCell>
        <mxCell id="GIZqvgro0386pKt4__yg-155" value="" style="endArrow=none;html=1;rounded=0;fillColor=#dae8fc;strokeColor=#6c8ebf;" edge="1" parent="1">
          <mxGeometry width="50" height="50" relative="1" as="geometry">
            <mxPoint x="659" y="560" as="sourcePoint" />
            <mxPoint x="699" y="560" as="targetPoint" />
          </mxGeometry>
        </mxCell>
        <mxCell id="GIZqvgro0386pKt4__yg-156" value="" style="endArrow=none;html=1;rounded=0;fillColor=#dae8fc;strokeColor=#6c8ebf;" edge="1" parent="1">
          <mxGeometry width="50" height="50" relative="1" as="geometry">
            <mxPoint x="389" y="590" as="sourcePoint" />
            <mxPoint x="389" y="570" as="targetPoint" />
          </mxGeometry>
        </mxCell>
        <mxCell id="GIZqvgro0386pKt4__yg-157" value="" style="endArrow=none;html=1;rounded=0;fillColor=#dae8fc;strokeColor=#6c8ebf;" edge="1" parent="1">
          <mxGeometry width="50" height="50" relative="1" as="geometry">
            <mxPoint x="389" y="570" as="sourcePoint" />
            <mxPoint x="429" y="570" as="targetPoint" />
          </mxGeometry>
        </mxCell>
        <mxCell id="GIZqvgro0386pKt4__yg-158" value="" style="endArrow=none;html=1;rounded=0;fillColor=#dae8fc;strokeColor=#6c8ebf;" edge="1" parent="1">
          <mxGeometry width="50" height="50" relative="1" as="geometry">
            <mxPoint x="429" y="590" as="sourcePoint" />
            <mxPoint x="429" y="570" as="targetPoint" />
          </mxGeometry>
        </mxCell>
        <mxCell id="GIZqvgro0386pKt4__yg-159" value="" style="endArrow=none;html=1;rounded=0;fillColor=#dae8fc;strokeColor=#6c8ebf;" edge="1" parent="1">
          <mxGeometry width="50" height="50" relative="1" as="geometry">
            <mxPoint x="429" y="590" as="sourcePoint" />
            <mxPoint x="469" y="590" as="targetPoint" />
          </mxGeometry>
        </mxCell>
        <mxCell id="GIZqvgro0386pKt4__yg-160" value="" style="endArrow=none;html=1;rounded=0;fillColor=#dae8fc;strokeColor=#6c8ebf;" edge="1" parent="1">
          <mxGeometry width="50" height="50" relative="1" as="geometry">
            <mxPoint x="469" y="590" as="sourcePoint" />
            <mxPoint x="469" y="570" as="targetPoint" />
          </mxGeometry>
        </mxCell>
        <mxCell id="GIZqvgro0386pKt4__yg-161" value="" style="endArrow=none;html=1;rounded=0;fillColor=#dae8fc;strokeColor=#6c8ebf;" edge="1" parent="1">
          <mxGeometry width="50" height="50" relative="1" as="geometry">
            <mxPoint x="469" y="570" as="sourcePoint" />
            <mxPoint x="509" y="570" as="targetPoint" />
          </mxGeometry>
        </mxCell>
        <mxCell id="GIZqvgro0386pKt4__yg-162" value="" style="endArrow=none;html=1;rounded=0;fillColor=#dae8fc;strokeColor=#6c8ebf;" edge="1" parent="1">
          <mxGeometry width="50" height="50" relative="1" as="geometry">
            <mxPoint x="509" y="590" as="sourcePoint" />
            <mxPoint x="509" y="570" as="targetPoint" />
          </mxGeometry>
        </mxCell>
        <mxCell id="GIZqvgro0386pKt4__yg-163" value="" style="endArrow=none;html=1;rounded=0;fillColor=#dae8fc;strokeColor=#6c8ebf;" edge="1" parent="1">
          <mxGeometry width="50" height="50" relative="1" as="geometry">
            <mxPoint x="509" y="590" as="sourcePoint" />
            <mxPoint x="549" y="590" as="targetPoint" />
          </mxGeometry>
        </mxCell>
        <mxCell id="GIZqvgro0386pKt4__yg-164" value="" style="endArrow=none;html=1;rounded=0;fillColor=#dae8fc;strokeColor=#6c8ebf;" edge="1" parent="1">
          <mxGeometry width="50" height="50" relative="1" as="geometry">
            <mxPoint x="549" y="590" as="sourcePoint" />
            <mxPoint x="549" y="570" as="targetPoint" />
          </mxGeometry>
        </mxCell>
        <mxCell id="GIZqvgro0386pKt4__yg-165" value="" style="endArrow=none;html=1;rounded=0;fillColor=#dae8fc;strokeColor=#6c8ebf;" edge="1" parent="1">
          <mxGeometry width="50" height="50" relative="1" as="geometry">
            <mxPoint x="549" y="570" as="sourcePoint" />
            <mxPoint x="589" y="570" as="targetPoint" />
          </mxGeometry>
        </mxCell>
        <mxCell id="GIZqvgro0386pKt4__yg-166" value="" style="endArrow=none;html=1;rounded=0;fillColor=#dae8fc;strokeColor=#6c8ebf;" edge="1" parent="1">
          <mxGeometry width="50" height="50" relative="1" as="geometry">
            <mxPoint x="589" y="590" as="sourcePoint" />
            <mxPoint x="589" y="570" as="targetPoint" />
          </mxGeometry>
        </mxCell>
        <mxCell id="GIZqvgro0386pKt4__yg-167" value="" style="endArrow=none;html=1;rounded=0;fillColor=#dae8fc;strokeColor=#6c8ebf;" edge="1" parent="1">
          <mxGeometry width="50" height="50" relative="1" as="geometry">
            <mxPoint x="589" y="590" as="sourcePoint" />
            <mxPoint x="629" y="590" as="targetPoint" />
          </mxGeometry>
        </mxCell>
        <mxCell id="GIZqvgro0386pKt4__yg-168" value="" style="endArrow=none;html=1;rounded=0;fillColor=#dae8fc;strokeColor=#6c8ebf;" edge="1" parent="1">
          <mxGeometry width="50" height="50" relative="1" as="geometry">
            <mxPoint x="629" y="590" as="sourcePoint" />
            <mxPoint x="629" y="570" as="targetPoint" />
          </mxGeometry>
        </mxCell>
        <mxCell id="GIZqvgro0386pKt4__yg-169" value="" style="endArrow=none;html=1;rounded=0;fillColor=#dae8fc;strokeColor=#6c8ebf;" edge="1" parent="1">
          <mxGeometry width="50" height="50" relative="1" as="geometry">
            <mxPoint x="629" y="570" as="sourcePoint" />
            <mxPoint x="669" y="570" as="targetPoint" />
          </mxGeometry>
        </mxCell>
        <mxCell id="GIZqvgro0386pKt4__yg-170" value="" style="endArrow=none;html=1;rounded=0;fillColor=#dae8fc;strokeColor=#6c8ebf;" edge="1" parent="1">
          <mxGeometry width="50" height="50" relative="1" as="geometry">
            <mxPoint x="669" y="590" as="sourcePoint" />
            <mxPoint x="669" y="570" as="targetPoint" />
          </mxGeometry>
        </mxCell>
        <mxCell id="GIZqvgro0386pKt4__yg-171" value="" style="endArrow=none;html=1;rounded=0;fillColor=#dae8fc;strokeColor=#6c8ebf;" edge="1" parent="1">
          <mxGeometry width="50" height="50" relative="1" as="geometry">
            <mxPoint x="669" y="590" as="sourcePoint" />
            <mxPoint x="709" y="590" as="targetPoint" />
          </mxGeometry>
        </mxCell>
        <mxCell id="GIZqvgro0386pKt4__yg-172" value="" style="endArrow=none;html=1;rounded=0;fillColor=#dae8fc;strokeColor=#6c8ebf;" edge="1" parent="1">
          <mxGeometry width="50" height="50" relative="1" as="geometry">
            <mxPoint x="399" y="620" as="sourcePoint" />
            <mxPoint x="399" y="600" as="targetPoint" />
          </mxGeometry>
        </mxCell>
        <mxCell id="GIZqvgro0386pKt4__yg-173" value="" style="endArrow=none;html=1;rounded=0;fillColor=#dae8fc;strokeColor=#6c8ebf;" edge="1" parent="1">
          <mxGeometry width="50" height="50" relative="1" as="geometry">
            <mxPoint x="399" y="600" as="sourcePoint" />
            <mxPoint x="439" y="600" as="targetPoint" />
          </mxGeometry>
        </mxCell>
        <mxCell id="GIZqvgro0386pKt4__yg-174" value="" style="endArrow=none;html=1;rounded=0;fillColor=#dae8fc;strokeColor=#6c8ebf;" edge="1" parent="1">
          <mxGeometry width="50" height="50" relative="1" as="geometry">
            <mxPoint x="439" y="620" as="sourcePoint" />
            <mxPoint x="439" y="600" as="targetPoint" />
          </mxGeometry>
        </mxCell>
        <mxCell id="GIZqvgro0386pKt4__yg-175" value="" style="endArrow=none;html=1;rounded=0;fillColor=#dae8fc;strokeColor=#6c8ebf;" edge="1" parent="1">
          <mxGeometry width="50" height="50" relative="1" as="geometry">
            <mxPoint x="439" y="620" as="sourcePoint" />
            <mxPoint x="479" y="620" as="targetPoint" />
          </mxGeometry>
        </mxCell>
        <mxCell id="GIZqvgro0386pKt4__yg-176" value="" style="endArrow=none;html=1;rounded=0;fillColor=#dae8fc;strokeColor=#6c8ebf;" edge="1" parent="1">
          <mxGeometry width="50" height="50" relative="1" as="geometry">
            <mxPoint x="479" y="620" as="sourcePoint" />
            <mxPoint x="479" y="600" as="targetPoint" />
          </mxGeometry>
        </mxCell>
        <mxCell id="GIZqvgro0386pKt4__yg-177" value="" style="endArrow=none;html=1;rounded=0;fillColor=#dae8fc;strokeColor=#6c8ebf;" edge="1" parent="1">
          <mxGeometry width="50" height="50" relative="1" as="geometry">
            <mxPoint x="479" y="600" as="sourcePoint" />
            <mxPoint x="519" y="600" as="targetPoint" />
          </mxGeometry>
        </mxCell>
        <mxCell id="GIZqvgro0386pKt4__yg-178" value="" style="endArrow=none;html=1;rounded=0;fillColor=#dae8fc;strokeColor=#6c8ebf;" edge="1" parent="1">
          <mxGeometry width="50" height="50" relative="1" as="geometry">
            <mxPoint x="519" y="620" as="sourcePoint" />
            <mxPoint x="519" y="600" as="targetPoint" />
          </mxGeometry>
        </mxCell>
        <mxCell id="GIZqvgro0386pKt4__yg-179" value="" style="endArrow=none;html=1;rounded=0;fillColor=#dae8fc;strokeColor=#6c8ebf;" edge="1" parent="1">
          <mxGeometry width="50" height="50" relative="1" as="geometry">
            <mxPoint x="519" y="620" as="sourcePoint" />
            <mxPoint x="559" y="620" as="targetPoint" />
          </mxGeometry>
        </mxCell>
        <mxCell id="GIZqvgro0386pKt4__yg-180" value="" style="endArrow=none;html=1;rounded=0;fillColor=#dae8fc;strokeColor=#6c8ebf;" edge="1" parent="1">
          <mxGeometry width="50" height="50" relative="1" as="geometry">
            <mxPoint x="559" y="620" as="sourcePoint" />
            <mxPoint x="559" y="600" as="targetPoint" />
          </mxGeometry>
        </mxCell>
        <mxCell id="GIZqvgro0386pKt4__yg-181" value="" style="endArrow=none;html=1;rounded=0;fillColor=#dae8fc;strokeColor=#6c8ebf;" edge="1" parent="1">
          <mxGeometry width="50" height="50" relative="1" as="geometry">
            <mxPoint x="559" y="600" as="sourcePoint" />
            <mxPoint x="599" y="600" as="targetPoint" />
          </mxGeometry>
        </mxCell>
        <mxCell id="GIZqvgro0386pKt4__yg-182" value="" style="endArrow=none;html=1;rounded=0;fillColor=#dae8fc;strokeColor=#6c8ebf;" edge="1" parent="1">
          <mxGeometry width="50" height="50" relative="1" as="geometry">
            <mxPoint x="599" y="620" as="sourcePoint" />
            <mxPoint x="599" y="600" as="targetPoint" />
          </mxGeometry>
        </mxCell>
        <mxCell id="GIZqvgro0386pKt4__yg-183" value="" style="endArrow=none;html=1;rounded=0;fillColor=#dae8fc;strokeColor=#6c8ebf;" edge="1" parent="1">
          <mxGeometry width="50" height="50" relative="1" as="geometry">
            <mxPoint x="599" y="620" as="sourcePoint" />
            <mxPoint x="639" y="620" as="targetPoint" />
          </mxGeometry>
        </mxCell>
        <mxCell id="GIZqvgro0386pKt4__yg-184" value="" style="endArrow=none;html=1;rounded=0;fillColor=#dae8fc;strokeColor=#6c8ebf;" edge="1" parent="1">
          <mxGeometry width="50" height="50" relative="1" as="geometry">
            <mxPoint x="639" y="620" as="sourcePoint" />
            <mxPoint x="639" y="600" as="targetPoint" />
          </mxGeometry>
        </mxCell>
        <mxCell id="GIZqvgro0386pKt4__yg-185" value="" style="endArrow=none;html=1;rounded=0;fillColor=#dae8fc;strokeColor=#6c8ebf;" edge="1" parent="1">
          <mxGeometry width="50" height="50" relative="1" as="geometry">
            <mxPoint x="639" y="600" as="sourcePoint" />
            <mxPoint x="679" y="600" as="targetPoint" />
          </mxGeometry>
        </mxCell>
        <mxCell id="GIZqvgro0386pKt4__yg-186" value="" style="endArrow=none;html=1;rounded=0;fillColor=#dae8fc;strokeColor=#6c8ebf;" edge="1" parent="1">
          <mxGeometry width="50" height="50" relative="1" as="geometry">
            <mxPoint x="679" y="620" as="sourcePoint" />
            <mxPoint x="679" y="600" as="targetPoint" />
          </mxGeometry>
        </mxCell>
        <mxCell id="GIZqvgro0386pKt4__yg-187" value="" style="endArrow=none;html=1;rounded=0;fillColor=#dae8fc;strokeColor=#6c8ebf;" edge="1" parent="1">
          <mxGeometry width="50" height="50" relative="1" as="geometry">
            <mxPoint x="679" y="620" as="sourcePoint" />
            <mxPoint x="719" y="620" as="targetPoint" />
          </mxGeometry>
        </mxCell>
        <mxCell id="GIZqvgro0386pKt4__yg-188" value="" style="endArrow=none;html=1;rounded=0;fillColor=#dae8fc;strokeColor=#6c8ebf;" edge="1" parent="1">
          <mxGeometry width="50" height="50" relative="1" as="geometry">
            <mxPoint x="409" y="650" as="sourcePoint" />
            <mxPoint x="409" y="630" as="targetPoint" />
          </mxGeometry>
        </mxCell>
        <mxCell id="GIZqvgro0386pKt4__yg-189" value="" style="endArrow=none;html=1;rounded=0;fillColor=#dae8fc;strokeColor=#6c8ebf;" edge="1" parent="1">
          <mxGeometry width="50" height="50" relative="1" as="geometry">
            <mxPoint x="409" y="630" as="sourcePoint" />
            <mxPoint x="449" y="630" as="targetPoint" />
          </mxGeometry>
        </mxCell>
        <mxCell id="GIZqvgro0386pKt4__yg-190" value="" style="endArrow=none;html=1;rounded=0;fillColor=#dae8fc;strokeColor=#6c8ebf;" edge="1" parent="1">
          <mxGeometry width="50" height="50" relative="1" as="geometry">
            <mxPoint x="449" y="650" as="sourcePoint" />
            <mxPoint x="449" y="630" as="targetPoint" />
          </mxGeometry>
        </mxCell>
        <mxCell id="GIZqvgro0386pKt4__yg-191" value="" style="endArrow=none;html=1;rounded=0;fillColor=#dae8fc;strokeColor=#6c8ebf;" edge="1" parent="1">
          <mxGeometry width="50" height="50" relative="1" as="geometry">
            <mxPoint x="449" y="650" as="sourcePoint" />
            <mxPoint x="489" y="650" as="targetPoint" />
          </mxGeometry>
        </mxCell>
        <mxCell id="GIZqvgro0386pKt4__yg-192" value="" style="endArrow=none;html=1;rounded=0;fillColor=#dae8fc;strokeColor=#6c8ebf;" edge="1" parent="1">
          <mxGeometry width="50" height="50" relative="1" as="geometry">
            <mxPoint x="489" y="650" as="sourcePoint" />
            <mxPoint x="489" y="630" as="targetPoint" />
          </mxGeometry>
        </mxCell>
        <mxCell id="GIZqvgro0386pKt4__yg-193" value="" style="endArrow=none;html=1;rounded=0;fillColor=#dae8fc;strokeColor=#6c8ebf;" edge="1" parent="1">
          <mxGeometry width="50" height="50" relative="1" as="geometry">
            <mxPoint x="489" y="630" as="sourcePoint" />
            <mxPoint x="529" y="630" as="targetPoint" />
          </mxGeometry>
        </mxCell>
        <mxCell id="GIZqvgro0386pKt4__yg-194" value="" style="endArrow=none;html=1;rounded=0;fillColor=#dae8fc;strokeColor=#6c8ebf;" edge="1" parent="1">
          <mxGeometry width="50" height="50" relative="1" as="geometry">
            <mxPoint x="529" y="650" as="sourcePoint" />
            <mxPoint x="529" y="630" as="targetPoint" />
          </mxGeometry>
        </mxCell>
        <mxCell id="GIZqvgro0386pKt4__yg-195" value="" style="endArrow=none;html=1;rounded=0;fillColor=#dae8fc;strokeColor=#6c8ebf;" edge="1" parent="1">
          <mxGeometry width="50" height="50" relative="1" as="geometry">
            <mxPoint x="529" y="650" as="sourcePoint" />
            <mxPoint x="569" y="650" as="targetPoint" />
          </mxGeometry>
        </mxCell>
        <mxCell id="GIZqvgro0386pKt4__yg-196" value="" style="endArrow=none;html=1;rounded=0;fillColor=#dae8fc;strokeColor=#6c8ebf;" edge="1" parent="1">
          <mxGeometry width="50" height="50" relative="1" as="geometry">
            <mxPoint x="569" y="650" as="sourcePoint" />
            <mxPoint x="569" y="630" as="targetPoint" />
          </mxGeometry>
        </mxCell>
        <mxCell id="GIZqvgro0386pKt4__yg-197" value="" style="endArrow=none;html=1;rounded=0;fillColor=#dae8fc;strokeColor=#6c8ebf;" edge="1" parent="1">
          <mxGeometry width="50" height="50" relative="1" as="geometry">
            <mxPoint x="569" y="630" as="sourcePoint" />
            <mxPoint x="609" y="630" as="targetPoint" />
          </mxGeometry>
        </mxCell>
        <mxCell id="GIZqvgro0386pKt4__yg-198" value="" style="endArrow=none;html=1;rounded=0;fillColor=#dae8fc;strokeColor=#6c8ebf;" edge="1" parent="1">
          <mxGeometry width="50" height="50" relative="1" as="geometry">
            <mxPoint x="609" y="650" as="sourcePoint" />
            <mxPoint x="609" y="630" as="targetPoint" />
          </mxGeometry>
        </mxCell>
        <mxCell id="GIZqvgro0386pKt4__yg-199" value="" style="endArrow=none;html=1;rounded=0;fillColor=#dae8fc;strokeColor=#6c8ebf;" edge="1" parent="1">
          <mxGeometry width="50" height="50" relative="1" as="geometry">
            <mxPoint x="609" y="650" as="sourcePoint" />
            <mxPoint x="649" y="650" as="targetPoint" />
          </mxGeometry>
        </mxCell>
        <mxCell id="GIZqvgro0386pKt4__yg-200" value="" style="endArrow=none;html=1;rounded=0;fillColor=#dae8fc;strokeColor=#6c8ebf;" edge="1" parent="1">
          <mxGeometry width="50" height="50" relative="1" as="geometry">
            <mxPoint x="649" y="650" as="sourcePoint" />
            <mxPoint x="649" y="630" as="targetPoint" />
          </mxGeometry>
        </mxCell>
        <mxCell id="GIZqvgro0386pKt4__yg-201" value="" style="endArrow=none;html=1;rounded=0;fillColor=#dae8fc;strokeColor=#6c8ebf;" edge="1" parent="1">
          <mxGeometry width="50" height="50" relative="1" as="geometry">
            <mxPoint x="649" y="630" as="sourcePoint" />
            <mxPoint x="689" y="630" as="targetPoint" />
          </mxGeometry>
        </mxCell>
        <mxCell id="GIZqvgro0386pKt4__yg-202" value="" style="endArrow=none;html=1;rounded=0;fillColor=#dae8fc;strokeColor=#6c8ebf;" edge="1" parent="1">
          <mxGeometry width="50" height="50" relative="1" as="geometry">
            <mxPoint x="689" y="650" as="sourcePoint" />
            <mxPoint x="689" y="630" as="targetPoint" />
          </mxGeometry>
        </mxCell>
        <mxCell id="GIZqvgro0386pKt4__yg-203" value="" style="endArrow=none;html=1;rounded=0;fillColor=#dae8fc;strokeColor=#6c8ebf;" edge="1" parent="1">
          <mxGeometry width="50" height="50" relative="1" as="geometry">
            <mxPoint x="689" y="650" as="sourcePoint" />
            <mxPoint x="729" y="650" as="targetPoint" />
          </mxGeometry>
        </mxCell>
        <mxCell id="GIZqvgro0386pKt4__yg-204" value="" style="endArrow=none;html=1;rounded=0;fillColor=#dae8fc;strokeColor=#6c8ebf;" edge="1" parent="1">
          <mxGeometry width="50" height="50" relative="1" as="geometry">
            <mxPoint x="419" y="680" as="sourcePoint" />
            <mxPoint x="419" y="660" as="targetPoint" />
          </mxGeometry>
        </mxCell>
        <mxCell id="GIZqvgro0386pKt4__yg-205" value="" style="endArrow=none;html=1;rounded=0;fillColor=#dae8fc;strokeColor=#6c8ebf;" edge="1" parent="1">
          <mxGeometry width="50" height="50" relative="1" as="geometry">
            <mxPoint x="419" y="660" as="sourcePoint" />
            <mxPoint x="459" y="660" as="targetPoint" />
          </mxGeometry>
        </mxCell>
        <mxCell id="GIZqvgro0386pKt4__yg-206" value="" style="endArrow=none;html=1;rounded=0;fillColor=#dae8fc;strokeColor=#6c8ebf;" edge="1" parent="1">
          <mxGeometry width="50" height="50" relative="1" as="geometry">
            <mxPoint x="459" y="680" as="sourcePoint" />
            <mxPoint x="459" y="660" as="targetPoint" />
          </mxGeometry>
        </mxCell>
        <mxCell id="GIZqvgro0386pKt4__yg-207" value="" style="endArrow=none;html=1;rounded=0;fillColor=#dae8fc;strokeColor=#6c8ebf;" edge="1" parent="1">
          <mxGeometry width="50" height="50" relative="1" as="geometry">
            <mxPoint x="459" y="680" as="sourcePoint" />
            <mxPoint x="499" y="680" as="targetPoint" />
          </mxGeometry>
        </mxCell>
        <mxCell id="GIZqvgro0386pKt4__yg-208" value="" style="endArrow=none;html=1;rounded=0;fillColor=#dae8fc;strokeColor=#6c8ebf;" edge="1" parent="1">
          <mxGeometry width="50" height="50" relative="1" as="geometry">
            <mxPoint x="499" y="680" as="sourcePoint" />
            <mxPoint x="499" y="660" as="targetPoint" />
          </mxGeometry>
        </mxCell>
        <mxCell id="GIZqvgro0386pKt4__yg-209" value="" style="endArrow=none;html=1;rounded=0;fillColor=#dae8fc;strokeColor=#6c8ebf;" edge="1" parent="1">
          <mxGeometry width="50" height="50" relative="1" as="geometry">
            <mxPoint x="499" y="660" as="sourcePoint" />
            <mxPoint x="539" y="660" as="targetPoint" />
          </mxGeometry>
        </mxCell>
        <mxCell id="GIZqvgro0386pKt4__yg-210" value="" style="endArrow=none;html=1;rounded=0;fillColor=#dae8fc;strokeColor=#6c8ebf;" edge="1" parent="1">
          <mxGeometry width="50" height="50" relative="1" as="geometry">
            <mxPoint x="539" y="680" as="sourcePoint" />
            <mxPoint x="539" y="660" as="targetPoint" />
          </mxGeometry>
        </mxCell>
        <mxCell id="GIZqvgro0386pKt4__yg-211" value="" style="endArrow=none;html=1;rounded=0;fillColor=#dae8fc;strokeColor=#6c8ebf;" edge="1" parent="1">
          <mxGeometry width="50" height="50" relative="1" as="geometry">
            <mxPoint x="539" y="680" as="sourcePoint" />
            <mxPoint x="579" y="680" as="targetPoint" />
          </mxGeometry>
        </mxCell>
        <mxCell id="GIZqvgro0386pKt4__yg-212" value="" style="endArrow=none;html=1;rounded=0;fillColor=#dae8fc;strokeColor=#6c8ebf;" edge="1" parent="1">
          <mxGeometry width="50" height="50" relative="1" as="geometry">
            <mxPoint x="579" y="680" as="sourcePoint" />
            <mxPoint x="579" y="660" as="targetPoint" />
          </mxGeometry>
        </mxCell>
        <mxCell id="GIZqvgro0386pKt4__yg-213" value="" style="endArrow=none;html=1;rounded=0;fillColor=#dae8fc;strokeColor=#6c8ebf;" edge="1" parent="1">
          <mxGeometry width="50" height="50" relative="1" as="geometry">
            <mxPoint x="579" y="660" as="sourcePoint" />
            <mxPoint x="619" y="660" as="targetPoint" />
          </mxGeometry>
        </mxCell>
        <mxCell id="GIZqvgro0386pKt4__yg-214" value="" style="endArrow=none;html=1;rounded=0;fillColor=#dae8fc;strokeColor=#6c8ebf;" edge="1" parent="1">
          <mxGeometry width="50" height="50" relative="1" as="geometry">
            <mxPoint x="619" y="680" as="sourcePoint" />
            <mxPoint x="619" y="660" as="targetPoint" />
          </mxGeometry>
        </mxCell>
        <mxCell id="GIZqvgro0386pKt4__yg-215" value="" style="endArrow=none;html=1;rounded=0;fillColor=#dae8fc;strokeColor=#6c8ebf;" edge="1" parent="1">
          <mxGeometry width="50" height="50" relative="1" as="geometry">
            <mxPoint x="619" y="680" as="sourcePoint" />
            <mxPoint x="659" y="680" as="targetPoint" />
          </mxGeometry>
        </mxCell>
        <mxCell id="GIZqvgro0386pKt4__yg-216" value="" style="endArrow=none;html=1;rounded=0;fillColor=#dae8fc;strokeColor=#6c8ebf;" edge="1" parent="1">
          <mxGeometry width="50" height="50" relative="1" as="geometry">
            <mxPoint x="659" y="680" as="sourcePoint" />
            <mxPoint x="659" y="660" as="targetPoint" />
          </mxGeometry>
        </mxCell>
        <mxCell id="GIZqvgro0386pKt4__yg-217" value="" style="endArrow=none;html=1;rounded=0;fillColor=#dae8fc;strokeColor=#6c8ebf;" edge="1" parent="1">
          <mxGeometry width="50" height="50" relative="1" as="geometry">
            <mxPoint x="659" y="660" as="sourcePoint" />
            <mxPoint x="699" y="660" as="targetPoint" />
          </mxGeometry>
        </mxCell>
        <mxCell id="GIZqvgro0386pKt4__yg-218" value="" style="endArrow=none;html=1;rounded=0;fillColor=#dae8fc;strokeColor=#6c8ebf;" edge="1" parent="1">
          <mxGeometry width="50" height="50" relative="1" as="geometry">
            <mxPoint x="699" y="680" as="sourcePoint" />
            <mxPoint x="699" y="660" as="targetPoint" />
          </mxGeometry>
        </mxCell>
        <mxCell id="GIZqvgro0386pKt4__yg-219" value="" style="endArrow=none;html=1;rounded=0;fillColor=#dae8fc;strokeColor=#6c8ebf;" edge="1" parent="1">
          <mxGeometry width="50" height="50" relative="1" as="geometry">
            <mxPoint x="699" y="680" as="sourcePoint" />
            <mxPoint x="739" y="680" as="targetPoint" />
          </mxGeometry>
        </mxCell>
        <mxCell id="GIZqvgro0386pKt4__yg-220" value="" style="endArrow=none;html=1;rounded=0;fillColor=#dae8fc;strokeColor=#6c8ebf;" edge="1" parent="1">
          <mxGeometry width="50" height="50" relative="1" as="geometry">
            <mxPoint x="429" y="710" as="sourcePoint" />
            <mxPoint x="429" y="690" as="targetPoint" />
          </mxGeometry>
        </mxCell>
        <mxCell id="GIZqvgro0386pKt4__yg-221" value="" style="endArrow=none;html=1;rounded=0;fillColor=#dae8fc;strokeColor=#6c8ebf;" edge="1" parent="1">
          <mxGeometry width="50" height="50" relative="1" as="geometry">
            <mxPoint x="429" y="690" as="sourcePoint" />
            <mxPoint x="469" y="690" as="targetPoint" />
          </mxGeometry>
        </mxCell>
        <mxCell id="GIZqvgro0386pKt4__yg-222" value="" style="endArrow=none;html=1;rounded=0;fillColor=#dae8fc;strokeColor=#6c8ebf;" edge="1" parent="1">
          <mxGeometry width="50" height="50" relative="1" as="geometry">
            <mxPoint x="469" y="710" as="sourcePoint" />
            <mxPoint x="469" y="690" as="targetPoint" />
          </mxGeometry>
        </mxCell>
        <mxCell id="GIZqvgro0386pKt4__yg-223" value="" style="endArrow=none;html=1;rounded=0;fillColor=#dae8fc;strokeColor=#6c8ebf;" edge="1" parent="1">
          <mxGeometry width="50" height="50" relative="1" as="geometry">
            <mxPoint x="469" y="710" as="sourcePoint" />
            <mxPoint x="509" y="710" as="targetPoint" />
          </mxGeometry>
        </mxCell>
        <mxCell id="GIZqvgro0386pKt4__yg-224" value="" style="endArrow=none;html=1;rounded=0;fillColor=#dae8fc;strokeColor=#6c8ebf;" edge="1" parent="1">
          <mxGeometry width="50" height="50" relative="1" as="geometry">
            <mxPoint x="509" y="710" as="sourcePoint" />
            <mxPoint x="509" y="690" as="targetPoint" />
          </mxGeometry>
        </mxCell>
        <mxCell id="GIZqvgro0386pKt4__yg-225" value="" style="endArrow=none;html=1;rounded=0;fillColor=#dae8fc;strokeColor=#6c8ebf;" edge="1" parent="1">
          <mxGeometry width="50" height="50" relative="1" as="geometry">
            <mxPoint x="509" y="690" as="sourcePoint" />
            <mxPoint x="549" y="690" as="targetPoint" />
          </mxGeometry>
        </mxCell>
        <mxCell id="GIZqvgro0386pKt4__yg-226" value="" style="endArrow=none;html=1;rounded=0;fillColor=#dae8fc;strokeColor=#6c8ebf;" edge="1" parent="1">
          <mxGeometry width="50" height="50" relative="1" as="geometry">
            <mxPoint x="549" y="710" as="sourcePoint" />
            <mxPoint x="549" y="690" as="targetPoint" />
          </mxGeometry>
        </mxCell>
        <mxCell id="GIZqvgro0386pKt4__yg-227" value="" style="endArrow=none;html=1;rounded=0;fillColor=#dae8fc;strokeColor=#6c8ebf;" edge="1" parent="1">
          <mxGeometry width="50" height="50" relative="1" as="geometry">
            <mxPoint x="549" y="710" as="sourcePoint" />
            <mxPoint x="589" y="710" as="targetPoint" />
          </mxGeometry>
        </mxCell>
        <mxCell id="GIZqvgro0386pKt4__yg-228" value="" style="endArrow=none;html=1;rounded=0;fillColor=#dae8fc;strokeColor=#6c8ebf;" edge="1" parent="1">
          <mxGeometry width="50" height="50" relative="1" as="geometry">
            <mxPoint x="589" y="710" as="sourcePoint" />
            <mxPoint x="589" y="690" as="targetPoint" />
          </mxGeometry>
        </mxCell>
        <mxCell id="GIZqvgro0386pKt4__yg-229" value="" style="endArrow=none;html=1;rounded=0;fillColor=#dae8fc;strokeColor=#6c8ebf;" edge="1" parent="1">
          <mxGeometry width="50" height="50" relative="1" as="geometry">
            <mxPoint x="589" y="690" as="sourcePoint" />
            <mxPoint x="629" y="690" as="targetPoint" />
          </mxGeometry>
        </mxCell>
        <mxCell id="GIZqvgro0386pKt4__yg-230" value="" style="endArrow=none;html=1;rounded=0;fillColor=#dae8fc;strokeColor=#6c8ebf;" edge="1" parent="1">
          <mxGeometry width="50" height="50" relative="1" as="geometry">
            <mxPoint x="629" y="710" as="sourcePoint" />
            <mxPoint x="629" y="690" as="targetPoint" />
          </mxGeometry>
        </mxCell>
        <mxCell id="GIZqvgro0386pKt4__yg-231" value="" style="endArrow=none;html=1;rounded=0;fillColor=#dae8fc;strokeColor=#6c8ebf;" edge="1" parent="1">
          <mxGeometry width="50" height="50" relative="1" as="geometry">
            <mxPoint x="629" y="710" as="sourcePoint" />
            <mxPoint x="669" y="710" as="targetPoint" />
          </mxGeometry>
        </mxCell>
        <mxCell id="GIZqvgro0386pKt4__yg-232" value="" style="endArrow=none;html=1;rounded=0;fillColor=#dae8fc;strokeColor=#6c8ebf;" edge="1" parent="1">
          <mxGeometry width="50" height="50" relative="1" as="geometry">
            <mxPoint x="669" y="710" as="sourcePoint" />
            <mxPoint x="669" y="690" as="targetPoint" />
          </mxGeometry>
        </mxCell>
        <mxCell id="GIZqvgro0386pKt4__yg-233" value="" style="endArrow=none;html=1;rounded=0;fillColor=#dae8fc;strokeColor=#6c8ebf;" edge="1" parent="1">
          <mxGeometry width="50" height="50" relative="1" as="geometry">
            <mxPoint x="669" y="690" as="sourcePoint" />
            <mxPoint x="709" y="690" as="targetPoint" />
          </mxGeometry>
        </mxCell>
        <mxCell id="GIZqvgro0386pKt4__yg-234" value="" style="endArrow=none;html=1;rounded=0;fillColor=#dae8fc;strokeColor=#6c8ebf;" edge="1" parent="1">
          <mxGeometry width="50" height="50" relative="1" as="geometry">
            <mxPoint x="709" y="710" as="sourcePoint" />
            <mxPoint x="709" y="690" as="targetPoint" />
          </mxGeometry>
        </mxCell>
        <mxCell id="GIZqvgro0386pKt4__yg-235" value="" style="endArrow=none;html=1;rounded=0;fillColor=#dae8fc;strokeColor=#6c8ebf;" edge="1" parent="1">
          <mxGeometry width="50" height="50" relative="1" as="geometry">
            <mxPoint x="709" y="710" as="sourcePoint" />
            <mxPoint x="749" y="710" as="targetPoint" />
          </mxGeometry>
        </mxCell>
        <mxCell id="GIZqvgro0386pKt4__yg-236" value="" style="endArrow=none;html=1;rounded=0;fillColor=#dae8fc;strokeColor=#6c8ebf;" edge="1" parent="1">
          <mxGeometry width="50" height="50" relative="1" as="geometry">
            <mxPoint x="439" y="740" as="sourcePoint" />
            <mxPoint x="439" y="720" as="targetPoint" />
          </mxGeometry>
        </mxCell>
        <mxCell id="GIZqvgro0386pKt4__yg-237" value="" style="endArrow=none;html=1;rounded=0;fillColor=#dae8fc;strokeColor=#6c8ebf;" edge="1" parent="1">
          <mxGeometry width="50" height="50" relative="1" as="geometry">
            <mxPoint x="439" y="720" as="sourcePoint" />
            <mxPoint x="479" y="720" as="targetPoint" />
          </mxGeometry>
        </mxCell>
        <mxCell id="GIZqvgro0386pKt4__yg-238" value="" style="endArrow=none;html=1;rounded=0;fillColor=#dae8fc;strokeColor=#6c8ebf;" edge="1" parent="1">
          <mxGeometry width="50" height="50" relative="1" as="geometry">
            <mxPoint x="479" y="740" as="sourcePoint" />
            <mxPoint x="479" y="720" as="targetPoint" />
          </mxGeometry>
        </mxCell>
        <mxCell id="GIZqvgro0386pKt4__yg-239" value="" style="endArrow=none;html=1;rounded=0;fillColor=#dae8fc;strokeColor=#6c8ebf;" edge="1" parent="1">
          <mxGeometry width="50" height="50" relative="1" as="geometry">
            <mxPoint x="479" y="740" as="sourcePoint" />
            <mxPoint x="519" y="740" as="targetPoint" />
          </mxGeometry>
        </mxCell>
        <mxCell id="GIZqvgro0386pKt4__yg-240" value="" style="endArrow=none;html=1;rounded=0;fillColor=#dae8fc;strokeColor=#6c8ebf;" edge="1" parent="1">
          <mxGeometry width="50" height="50" relative="1" as="geometry">
            <mxPoint x="519" y="740" as="sourcePoint" />
            <mxPoint x="519" y="720" as="targetPoint" />
          </mxGeometry>
        </mxCell>
        <mxCell id="GIZqvgro0386pKt4__yg-241" value="" style="endArrow=none;html=1;rounded=0;fillColor=#dae8fc;strokeColor=#6c8ebf;" edge="1" parent="1">
          <mxGeometry width="50" height="50" relative="1" as="geometry">
            <mxPoint x="519" y="720" as="sourcePoint" />
            <mxPoint x="559" y="720" as="targetPoint" />
          </mxGeometry>
        </mxCell>
        <mxCell id="GIZqvgro0386pKt4__yg-242" value="" style="endArrow=none;html=1;rounded=0;fillColor=#dae8fc;strokeColor=#6c8ebf;" edge="1" parent="1">
          <mxGeometry width="50" height="50" relative="1" as="geometry">
            <mxPoint x="559" y="740" as="sourcePoint" />
            <mxPoint x="559" y="720" as="targetPoint" />
          </mxGeometry>
        </mxCell>
        <mxCell id="GIZqvgro0386pKt4__yg-243" value="" style="endArrow=none;html=1;rounded=0;fillColor=#dae8fc;strokeColor=#6c8ebf;" edge="1" parent="1">
          <mxGeometry width="50" height="50" relative="1" as="geometry">
            <mxPoint x="559" y="740" as="sourcePoint" />
            <mxPoint x="599" y="740" as="targetPoint" />
          </mxGeometry>
        </mxCell>
        <mxCell id="GIZqvgro0386pKt4__yg-244" value="" style="endArrow=none;html=1;rounded=0;fillColor=#dae8fc;strokeColor=#6c8ebf;" edge="1" parent="1">
          <mxGeometry width="50" height="50" relative="1" as="geometry">
            <mxPoint x="599" y="740" as="sourcePoint" />
            <mxPoint x="599" y="720" as="targetPoint" />
          </mxGeometry>
        </mxCell>
        <mxCell id="GIZqvgro0386pKt4__yg-245" value="" style="endArrow=none;html=1;rounded=0;fillColor=#dae8fc;strokeColor=#6c8ebf;" edge="1" parent="1">
          <mxGeometry width="50" height="50" relative="1" as="geometry">
            <mxPoint x="599" y="720" as="sourcePoint" />
            <mxPoint x="639" y="720" as="targetPoint" />
          </mxGeometry>
        </mxCell>
        <mxCell id="GIZqvgro0386pKt4__yg-246" value="" style="endArrow=none;html=1;rounded=0;fillColor=#dae8fc;strokeColor=#6c8ebf;" edge="1" parent="1">
          <mxGeometry width="50" height="50" relative="1" as="geometry">
            <mxPoint x="639" y="740" as="sourcePoint" />
            <mxPoint x="639" y="720" as="targetPoint" />
          </mxGeometry>
        </mxCell>
        <mxCell id="GIZqvgro0386pKt4__yg-247" value="" style="endArrow=none;html=1;rounded=0;fillColor=#dae8fc;strokeColor=#6c8ebf;" edge="1" parent="1">
          <mxGeometry width="50" height="50" relative="1" as="geometry">
            <mxPoint x="639" y="740" as="sourcePoint" />
            <mxPoint x="679" y="740" as="targetPoint" />
          </mxGeometry>
        </mxCell>
        <mxCell id="GIZqvgro0386pKt4__yg-248" value="" style="endArrow=none;html=1;rounded=0;fillColor=#dae8fc;strokeColor=#6c8ebf;" edge="1" parent="1">
          <mxGeometry width="50" height="50" relative="1" as="geometry">
            <mxPoint x="679" y="740" as="sourcePoint" />
            <mxPoint x="679" y="720" as="targetPoint" />
          </mxGeometry>
        </mxCell>
        <mxCell id="GIZqvgro0386pKt4__yg-249" value="" style="endArrow=none;html=1;rounded=0;fillColor=#dae8fc;strokeColor=#6c8ebf;" edge="1" parent="1">
          <mxGeometry width="50" height="50" relative="1" as="geometry">
            <mxPoint x="679" y="720" as="sourcePoint" />
            <mxPoint x="719" y="720" as="targetPoint" />
          </mxGeometry>
        </mxCell>
        <mxCell id="GIZqvgro0386pKt4__yg-250" value="" style="endArrow=none;html=1;rounded=0;fillColor=#dae8fc;strokeColor=#6c8ebf;" edge="1" parent="1">
          <mxGeometry width="50" height="50" relative="1" as="geometry">
            <mxPoint x="719" y="740" as="sourcePoint" />
            <mxPoint x="719" y="720" as="targetPoint" />
          </mxGeometry>
        </mxCell>
        <mxCell id="GIZqvgro0386pKt4__yg-251" value="" style="endArrow=none;html=1;rounded=0;fillColor=#dae8fc;strokeColor=#6c8ebf;" edge="1" parent="1">
          <mxGeometry width="50" height="50" relative="1" as="geometry">
            <mxPoint x="719" y="740" as="sourcePoint" />
            <mxPoint x="759" y="740" as="targetPoint" />
          </mxGeometry>
        </mxCell>
        <mxCell id="GIZqvgro0386pKt4__yg-252" value="" style="endArrow=none;html=1;rounded=0;fillColor=#dae8fc;strokeColor=#6c8ebf;" edge="1" parent="1">
          <mxGeometry width="50" height="50" relative="1" as="geometry">
            <mxPoint x="449" y="770" as="sourcePoint" />
            <mxPoint x="449" y="750" as="targetPoint" />
          </mxGeometry>
        </mxCell>
        <mxCell id="GIZqvgro0386pKt4__yg-253" value="" style="endArrow=none;html=1;rounded=0;fillColor=#dae8fc;strokeColor=#6c8ebf;" edge="1" parent="1">
          <mxGeometry width="50" height="50" relative="1" as="geometry">
            <mxPoint x="449" y="750" as="sourcePoint" />
            <mxPoint x="489" y="750" as="targetPoint" />
          </mxGeometry>
        </mxCell>
        <mxCell id="GIZqvgro0386pKt4__yg-254" value="" style="endArrow=none;html=1;rounded=0;fillColor=#dae8fc;strokeColor=#6c8ebf;" edge="1" parent="1">
          <mxGeometry width="50" height="50" relative="1" as="geometry">
            <mxPoint x="489" y="770" as="sourcePoint" />
            <mxPoint x="489" y="750" as="targetPoint" />
          </mxGeometry>
        </mxCell>
        <mxCell id="GIZqvgro0386pKt4__yg-255" value="" style="endArrow=none;html=1;rounded=0;fillColor=#dae8fc;strokeColor=#6c8ebf;" edge="1" parent="1">
          <mxGeometry width="50" height="50" relative="1" as="geometry">
            <mxPoint x="489" y="770" as="sourcePoint" />
            <mxPoint x="529" y="770" as="targetPoint" />
          </mxGeometry>
        </mxCell>
        <mxCell id="GIZqvgro0386pKt4__yg-256" value="" style="endArrow=none;html=1;rounded=0;fillColor=#dae8fc;strokeColor=#6c8ebf;" edge="1" parent="1">
          <mxGeometry width="50" height="50" relative="1" as="geometry">
            <mxPoint x="529" y="770" as="sourcePoint" />
            <mxPoint x="529" y="750" as="targetPoint" />
          </mxGeometry>
        </mxCell>
        <mxCell id="GIZqvgro0386pKt4__yg-257" value="" style="endArrow=none;html=1;rounded=0;fillColor=#dae8fc;strokeColor=#6c8ebf;" edge="1" parent="1">
          <mxGeometry width="50" height="50" relative="1" as="geometry">
            <mxPoint x="529" y="750" as="sourcePoint" />
            <mxPoint x="569" y="750" as="targetPoint" />
          </mxGeometry>
        </mxCell>
        <mxCell id="GIZqvgro0386pKt4__yg-258" value="" style="endArrow=none;html=1;rounded=0;fillColor=#dae8fc;strokeColor=#6c8ebf;" edge="1" parent="1">
          <mxGeometry width="50" height="50" relative="1" as="geometry">
            <mxPoint x="569" y="770" as="sourcePoint" />
            <mxPoint x="569" y="750" as="targetPoint" />
          </mxGeometry>
        </mxCell>
        <mxCell id="GIZqvgro0386pKt4__yg-259" value="" style="endArrow=none;html=1;rounded=0;fillColor=#dae8fc;strokeColor=#6c8ebf;" edge="1" parent="1">
          <mxGeometry width="50" height="50" relative="1" as="geometry">
            <mxPoint x="569" y="770" as="sourcePoint" />
            <mxPoint x="609" y="770" as="targetPoint" />
          </mxGeometry>
        </mxCell>
        <mxCell id="GIZqvgro0386pKt4__yg-260" value="" style="endArrow=none;html=1;rounded=0;fillColor=#dae8fc;strokeColor=#6c8ebf;" edge="1" parent="1">
          <mxGeometry width="50" height="50" relative="1" as="geometry">
            <mxPoint x="609" y="770" as="sourcePoint" />
            <mxPoint x="609" y="750" as="targetPoint" />
          </mxGeometry>
        </mxCell>
        <mxCell id="GIZqvgro0386pKt4__yg-261" value="" style="endArrow=none;html=1;rounded=0;fillColor=#dae8fc;strokeColor=#6c8ebf;" edge="1" parent="1">
          <mxGeometry width="50" height="50" relative="1" as="geometry">
            <mxPoint x="609" y="750" as="sourcePoint" />
            <mxPoint x="649" y="750" as="targetPoint" />
          </mxGeometry>
        </mxCell>
        <mxCell id="GIZqvgro0386pKt4__yg-262" value="" style="endArrow=none;html=1;rounded=0;fillColor=#dae8fc;strokeColor=#6c8ebf;" edge="1" parent="1">
          <mxGeometry width="50" height="50" relative="1" as="geometry">
            <mxPoint x="649" y="770" as="sourcePoint" />
            <mxPoint x="649" y="750" as="targetPoint" />
          </mxGeometry>
        </mxCell>
        <mxCell id="GIZqvgro0386pKt4__yg-263" value="" style="endArrow=none;html=1;rounded=0;fillColor=#dae8fc;strokeColor=#6c8ebf;" edge="1" parent="1">
          <mxGeometry width="50" height="50" relative="1" as="geometry">
            <mxPoint x="649" y="770" as="sourcePoint" />
            <mxPoint x="689" y="770" as="targetPoint" />
          </mxGeometry>
        </mxCell>
        <mxCell id="GIZqvgro0386pKt4__yg-264" value="" style="endArrow=none;html=1;rounded=0;fillColor=#dae8fc;strokeColor=#6c8ebf;" edge="1" parent="1">
          <mxGeometry width="50" height="50" relative="1" as="geometry">
            <mxPoint x="689" y="770" as="sourcePoint" />
            <mxPoint x="689" y="750" as="targetPoint" />
          </mxGeometry>
        </mxCell>
        <mxCell id="GIZqvgro0386pKt4__yg-265" value="" style="endArrow=none;html=1;rounded=0;fillColor=#dae8fc;strokeColor=#6c8ebf;" edge="1" parent="1">
          <mxGeometry width="50" height="50" relative="1" as="geometry">
            <mxPoint x="689" y="750" as="sourcePoint" />
            <mxPoint x="729" y="750" as="targetPoint" />
          </mxGeometry>
        </mxCell>
        <mxCell id="GIZqvgro0386pKt4__yg-266" value="" style="endArrow=none;html=1;rounded=0;fillColor=#dae8fc;strokeColor=#6c8ebf;" edge="1" parent="1">
          <mxGeometry width="50" height="50" relative="1" as="geometry">
            <mxPoint x="729" y="770" as="sourcePoint" />
            <mxPoint x="729" y="750" as="targetPoint" />
          </mxGeometry>
        </mxCell>
        <mxCell id="GIZqvgro0386pKt4__yg-267" value="" style="endArrow=none;html=1;rounded=0;fillColor=#dae8fc;strokeColor=#6c8ebf;" edge="1" parent="1">
          <mxGeometry width="50" height="50" relative="1" as="geometry">
            <mxPoint x="729" y="770" as="sourcePoint" />
            <mxPoint x="769" y="770" as="targetPoint" />
          </mxGeometry>
        </mxCell>
        <mxCell id="GIZqvgro0386pKt4__yg-268" value="CK" style="text;html=1;align=center;verticalAlign=middle;whiteSpace=wrap;rounded=0;fontStyle=0;fillColor=#ffe6cc;strokeColor=#d79b00;fontSize=8;" vertex="1" parent="1">
          <mxGeometry x="200" y="480" width="100" height="20" as="geometry" />
        </mxCell>
        <mxCell id="GIZqvgro0386pKt4__yg-269" value="&lt;font style=&quot;font-size: 8px;&quot;&gt;CS signal with x delay&lt;/font&gt;" style="text;html=1;align=center;verticalAlign=middle;whiteSpace=wrap;rounded=0;fontStyle=0;fillColor=#dae8fc;strokeColor=#6c8ebf;fontSize=8;" vertex="1" parent="1">
          <mxGeometry x="200" y="510" width="100" height="20" as="geometry" />
        </mxCell>
        <mxCell id="GIZqvgro0386pKt4__yg-270" value="&lt;font style=&quot;font-size: 8px;&quot;&gt;CS signal with x+1 delay&lt;/font&gt;" style="text;html=1;align=center;verticalAlign=middle;whiteSpace=wrap;rounded=0;fontStyle=0;fillColor=#dae8fc;strokeColor=#6c8ebf;fontSize=8;" vertex="1" parent="1">
          <mxGeometry x="200" y="540" width="100" height="20" as="geometry" />
        </mxCell>
        <mxCell id="GIZqvgro0386pKt4__yg-271" value="&lt;font style=&quot;font-size: 8px;&quot;&gt;CS signal with x+2 delay&lt;/font&gt;" style="text;html=1;align=center;verticalAlign=middle;whiteSpace=wrap;rounded=0;fontStyle=0;fillColor=#dae8fc;strokeColor=#6c8ebf;fontSize=8;" vertex="1" parent="1">
          <mxGeometry x="200" y="570" width="100" height="20" as="geometry" />
        </mxCell>
        <mxCell id="GIZqvgro0386pKt4__yg-272" value="&lt;font style=&quot;font-size: 8px;&quot;&gt;CS signal with x+3 delay&lt;/font&gt;" style="text;html=1;align=center;verticalAlign=middle;whiteSpace=wrap;rounded=0;fontStyle=0;fillColor=#dae8fc;strokeColor=#6c8ebf;fontSize=8;" vertex="1" parent="1">
          <mxGeometry x="200" y="600" width="100" height="20" as="geometry" />
        </mxCell>
        <mxCell id="GIZqvgro0386pKt4__yg-273" value="&lt;font style=&quot;font-size: 8px;&quot;&gt;CS signal with x+4 delay&lt;/font&gt;" style="text;html=1;align=center;verticalAlign=middle;whiteSpace=wrap;rounded=0;fontStyle=0;fillColor=#dae8fc;strokeColor=#6c8ebf;fontSize=8;" vertex="1" parent="1">
          <mxGeometry x="200" y="630" width="100" height="20" as="geometry" />
        </mxCell>
        <mxCell id="GIZqvgro0386pKt4__yg-274" value="&lt;font style=&quot;font-size: 8px;&quot;&gt;CS signal with x+5 delay&lt;/font&gt;" style="text;html=1;align=center;verticalAlign=middle;whiteSpace=wrap;rounded=0;fontStyle=0;fillColor=#dae8fc;strokeColor=#6c8ebf;fontSize=8;" vertex="1" parent="1">
          <mxGeometry x="200" y="660" width="100" height="20" as="geometry" />
        </mxCell>
        <mxCell id="GIZqvgro0386pKt4__yg-275" value="&lt;font style=&quot;font-size: 8px;&quot;&gt;CS signal with x+6 delay&lt;/font&gt;" style="text;html=1;align=center;verticalAlign=middle;whiteSpace=wrap;rounded=0;fontStyle=0;fillColor=#dae8fc;strokeColor=#6c8ebf;fontSize=8;" vertex="1" parent="1">
          <mxGeometry x="200" y="690" width="100" height="20" as="geometry" />
        </mxCell>
        <mxCell id="GIZqvgro0386pKt4__yg-276" value="&lt;font style=&quot;font-size: 8px;&quot;&gt;CS signal with x+7 delay&lt;/font&gt;" style="text;html=1;align=center;verticalAlign=middle;whiteSpace=wrap;rounded=0;fontStyle=0;fillColor=#dae8fc;strokeColor=#6c8ebf;fontSize=8;" vertex="1" parent="1">
          <mxGeometry x="200" y="720" width="100" height="20" as="geometry" />
        </mxCell>
        <mxCell id="GIZqvgro0386pKt4__yg-277" value="&lt;font style=&quot;font-size: 8px;&quot;&gt;CS signal with x+8 delay&lt;/font&gt;" style="text;html=1;align=center;verticalAlign=middle;whiteSpace=wrap;rounded=0;fontStyle=0;fillColor=#dae8fc;strokeColor=#6c8ebf;fontSize=8;" vertex="1" parent="1">
          <mxGeometry x="200" y="750" width="100" height="20" as="geometry" />
        </mxCell>
        <mxCell id="GIZqvgro0386pKt4__yg-278" value="&lt;font style=&quot;font-size: 8px;&quot;&gt;CS signal with x+9 delay&lt;/font&gt;" style="text;html=1;align=center;verticalAlign=middle;whiteSpace=wrap;rounded=0;fontStyle=0;fillColor=#dae8fc;strokeColor=#6c8ebf;fontSize=8;" vertex="1" parent="1">
          <mxGeometry x="200" y="780" width="100" height="20" as="geometry" />
        </mxCell>
        <mxCell id="GIZqvgro0386pKt4__yg-279" value="" style="endArrow=classic;html=1;rounded=0;fillColor=#f8cecc;strokeColor=#b85450;" edge="1" parent="1">
          <mxGeometry width="50" height="50" relative="1" as="geometry">
            <mxPoint x="340" y="460" as="sourcePoint" />
            <mxPoint x="480" y="460" as="targetPoint" />
          </mxGeometry>
        </mxCell>
        <mxCell id="GIZqvgro0386pKt4__yg-280" value="CSTM Entry" style="rounded=0;whiteSpace=wrap;html=1;fillColor=#f8cecc;strokeColor=#b85450;fontSize=10;" vertex="1" parent="1">
          <mxGeometry x="320" y="445" width="40" height="30" as="geometry" />
        </mxCell>
        <mxCell id="GIZqvgro0386pKt4__yg-281" value="1" style="text;html=1;align=center;verticalAlign=middle;whiteSpace=wrap;rounded=0;fontSize=10;fontColor=#6c8ebf;fontStyle=1" vertex="1" parent="1">
          <mxGeometry x="460" y="510" width="20" height="10" as="geometry" />
        </mxCell>
        <mxCell id="GIZqvgro0386pKt4__yg-283" value="0" style="text;html=1;align=center;verticalAlign=middle;whiteSpace=wrap;rounded=0;fontSize=10;fontColor=#6c8ebf;fontStyle=1" vertex="1" parent="1">
          <mxGeometry x="500" y="510" width="20" height="10" as="geometry" />
        </mxCell>
        <mxCell id="GIZqvgro0386pKt4__yg-284" value="1" style="text;html=1;align=center;verticalAlign=middle;whiteSpace=wrap;rounded=0;fontSize=10;fontColor=#6c8ebf;fontStyle=1" vertex="1" parent="1">
          <mxGeometry x="540" y="510" width="20" height="10" as="geometry" />
        </mxCell>
        <mxCell id="GIZqvgro0386pKt4__yg-285" value="0" style="text;html=1;align=center;verticalAlign=middle;whiteSpace=wrap;rounded=0;fontSize=10;fontColor=#6c8ebf;fontStyle=1" vertex="1" parent="1">
          <mxGeometry x="580" y="510" width="20" height="10" as="geometry" />
        </mxCell>
        <mxCell id="GIZqvgro0386pKt4__yg-286" value="1" style="text;html=1;align=center;verticalAlign=middle;whiteSpace=wrap;rounded=0;fontSize=10;fontColor=#6c8ebf;fontStyle=1" vertex="1" parent="1">
          <mxGeometry x="460" y="540" width="20" height="10" as="geometry" />
        </mxCell>
        <mxCell id="GIZqvgro0386pKt4__yg-287" value="0" style="text;html=1;align=center;verticalAlign=middle;whiteSpace=wrap;rounded=0;fontSize=10;fontColor=#6c8ebf;fontStyle=1" vertex="1" parent="1">
          <mxGeometry x="500" y="540" width="20" height="10" as="geometry" />
        </mxCell>
        <mxCell id="GIZqvgro0386pKt4__yg-288" value="1" style="text;html=1;align=center;verticalAlign=middle;whiteSpace=wrap;rounded=0;fontSize=10;fontColor=#6c8ebf;fontStyle=1" vertex="1" parent="1">
          <mxGeometry x="540" y="540" width="20" height="10" as="geometry" />
        </mxCell>
        <mxCell id="GIZqvgro0386pKt4__yg-289" value="0" style="text;html=1;align=center;verticalAlign=middle;whiteSpace=wrap;rounded=0;fontSize=10;fontColor=#6c8ebf;fontStyle=1" vertex="1" parent="1">
          <mxGeometry x="580" y="540" width="20" height="10" as="geometry" />
        </mxCell>
        <mxCell id="GIZqvgro0386pKt4__yg-290" value="1" style="text;html=1;align=center;verticalAlign=middle;whiteSpace=wrap;rounded=0;fontSize=10;fontColor=#6c8ebf;fontStyle=1" vertex="1" parent="1">
          <mxGeometry x="465" y="570" width="20" height="10" as="geometry" />
        </mxCell>
        <mxCell id="GIZqvgro0386pKt4__yg-291" value="0" style="text;html=1;align=center;verticalAlign=middle;whiteSpace=wrap;rounded=0;fontSize=10;fontColor=#6c8ebf;fontStyle=1" vertex="1" parent="1">
          <mxGeometry x="505" y="570" width="20" height="10" as="geometry" />
        </mxCell>
        <mxCell id="GIZqvgro0386pKt4__yg-292" value="1" style="text;html=1;align=center;verticalAlign=middle;whiteSpace=wrap;rounded=0;fontSize=10;fontColor=#6c8ebf;fontStyle=1" vertex="1" parent="1">
          <mxGeometry x="545" y="570" width="20" height="10" as="geometry" />
        </mxCell>
        <mxCell id="GIZqvgro0386pKt4__yg-293" value="0" style="text;html=1;align=center;verticalAlign=middle;whiteSpace=wrap;rounded=0;fontSize=10;fontColor=#6c8ebf;fontStyle=1" vertex="1" parent="1">
          <mxGeometry x="585" y="570" width="20" height="10" as="geometry" />
        </mxCell>
        <mxCell id="GIZqvgro0386pKt4__yg-294" value="1" style="text;html=1;align=center;verticalAlign=middle;whiteSpace=wrap;rounded=0;fontSize=10;fontColor=#6c8ebf;fontStyle=1" vertex="1" parent="1">
          <mxGeometry x="463" y="600" width="20" height="10" as="geometry" />
        </mxCell>
        <mxCell id="GIZqvgro0386pKt4__yg-295" value="0" style="text;html=1;align=center;verticalAlign=middle;whiteSpace=wrap;rounded=0;fontSize=10;fontColor=#6c8ebf;fontStyle=1" vertex="1" parent="1">
          <mxGeometry x="503" y="600" width="20" height="10" as="geometry" />
        </mxCell>
        <mxCell id="GIZqvgro0386pKt4__yg-296" value="1" style="text;html=1;align=center;verticalAlign=middle;whiteSpace=wrap;rounded=0;fontSize=10;fontColor=#6c8ebf;fontStyle=1" vertex="1" parent="1">
          <mxGeometry x="543" y="600" width="20" height="10" as="geometry" />
        </mxCell>
        <mxCell id="GIZqvgro0386pKt4__yg-297" value="0" style="text;html=1;align=center;verticalAlign=middle;whiteSpace=wrap;rounded=0;fontSize=10;fontColor=#6c8ebf;fontStyle=1" vertex="1" parent="1">
          <mxGeometry x="583" y="600" width="20" height="10" as="geometry" />
        </mxCell>
        <mxCell id="GIZqvgro0386pKt4__yg-298" value="0" style="text;html=1;align=center;verticalAlign=middle;whiteSpace=wrap;rounded=0;fontSize=10;fontColor=#6c8ebf;fontStyle=1" vertex="1" parent="1">
          <mxGeometry x="465" y="630" width="20" height="10" as="geometry" />
        </mxCell>
        <mxCell id="GIZqvgro0386pKt4__yg-299" value="1" style="text;html=1;align=center;verticalAlign=middle;whiteSpace=wrap;rounded=0;fontSize=10;fontColor=#6c8ebf;fontStyle=1" vertex="1" parent="1">
          <mxGeometry x="505" y="630" width="20" height="10" as="geometry" />
        </mxCell>
        <mxCell id="GIZqvgro0386pKt4__yg-300" value="0" style="text;html=1;align=center;verticalAlign=middle;whiteSpace=wrap;rounded=0;fontSize=10;fontColor=#6c8ebf;fontStyle=1" vertex="1" parent="1">
          <mxGeometry x="545" y="630" width="20" height="10" as="geometry" />
        </mxCell>
        <mxCell id="GIZqvgro0386pKt4__yg-301" value="1" style="text;html=1;align=center;verticalAlign=middle;whiteSpace=wrap;rounded=0;fontSize=10;fontColor=#6c8ebf;fontStyle=1" vertex="1" parent="1">
          <mxGeometry x="585" y="630" width="20" height="10" as="geometry" />
        </mxCell>
        <mxCell id="GIZqvgro0386pKt4__yg-302" value="0" style="text;html=1;align=center;verticalAlign=middle;whiteSpace=wrap;rounded=0;fontSize=10;fontColor=#6c8ebf;fontStyle=1" vertex="1" parent="1">
          <mxGeometry x="463" y="660" width="20" height="10" as="geometry" />
        </mxCell>
        <mxCell id="GIZqvgro0386pKt4__yg-303" value="1" style="text;html=1;align=center;verticalAlign=middle;whiteSpace=wrap;rounded=0;fontSize=10;fontColor=#6c8ebf;fontStyle=1" vertex="1" parent="1">
          <mxGeometry x="503" y="660" width="20" height="10" as="geometry" />
        </mxCell>
        <mxCell id="GIZqvgro0386pKt4__yg-304" value="0" style="text;html=1;align=center;verticalAlign=middle;whiteSpace=wrap;rounded=0;fontSize=10;fontColor=#6c8ebf;fontStyle=1" vertex="1" parent="1">
          <mxGeometry x="543" y="660" width="20" height="10" as="geometry" />
        </mxCell>
        <mxCell id="GIZqvgro0386pKt4__yg-305" value="1" style="text;html=1;align=center;verticalAlign=middle;whiteSpace=wrap;rounded=0;fontSize=10;fontColor=#6c8ebf;fontStyle=1" vertex="1" parent="1">
          <mxGeometry x="583" y="660" width="20" height="10" as="geometry" />
        </mxCell>
        <mxCell id="GIZqvgro0386pKt4__yg-306" value="0" style="text;html=1;align=center;verticalAlign=middle;whiteSpace=wrap;rounded=0;fontSize=10;fontColor=#6c8ebf;fontStyle=1" vertex="1" parent="1">
          <mxGeometry x="462" y="690" width="25" height="10" as="geometry" />
        </mxCell>
        <mxCell id="GIZqvgro0386pKt4__yg-307" value="1" style="text;html=1;align=center;verticalAlign=middle;whiteSpace=wrap;rounded=0;fontSize=10;fontColor=#6c8ebf;fontStyle=1" vertex="1" parent="1">
          <mxGeometry x="504" y="690" width="20" height="10" as="geometry" />
        </mxCell>
        <mxCell id="GIZqvgro0386pKt4__yg-308" value="0" style="text;html=1;align=center;verticalAlign=middle;whiteSpace=wrap;rounded=0;fontSize=10;fontColor=#6c8ebf;fontStyle=1" vertex="1" parent="1">
          <mxGeometry x="543" y="690" width="20" height="10" as="geometry" />
        </mxCell>
        <mxCell id="GIZqvgro0386pKt4__yg-309" value="1" style="text;html=1;align=center;verticalAlign=middle;whiteSpace=wrap;rounded=0;fontSize=10;fontColor=#6c8ebf;fontStyle=1" vertex="1" parent="1">
          <mxGeometry x="583" y="690" width="20" height="10" as="geometry" />
        </mxCell>
        <mxCell id="GIZqvgro0386pKt4__yg-310" value="0" style="text;html=1;align=center;verticalAlign=middle;whiteSpace=wrap;rounded=0;fontSize=10;fontColor=#6c8ebf;fontStyle=1" vertex="1" parent="1">
          <mxGeometry x="461" y="720" width="20" height="10" as="geometry" />
        </mxCell>
        <mxCell id="GIZqvgro0386pKt4__yg-311" value="1" style="text;html=1;align=center;verticalAlign=middle;whiteSpace=wrap;rounded=0;fontSize=10;fontColor=#6c8ebf;fontStyle=1" vertex="1" parent="1">
          <mxGeometry x="501" y="720" width="20" height="10" as="geometry" />
        </mxCell>
        <mxCell id="GIZqvgro0386pKt4__yg-312" value="0" style="text;html=1;align=center;verticalAlign=middle;whiteSpace=wrap;rounded=0;fontSize=10;fontColor=#6c8ebf;fontStyle=1" vertex="1" parent="1">
          <mxGeometry x="541" y="720" width="20" height="10" as="geometry" />
        </mxCell>
        <mxCell id="GIZqvgro0386pKt4__yg-313" value="1" style="text;html=1;align=center;verticalAlign=middle;whiteSpace=wrap;rounded=0;fontSize=10;fontColor=#6c8ebf;fontStyle=1" vertex="1" parent="1">
          <mxGeometry x="581" y="720" width="20" height="10" as="geometry" />
        </mxCell>
        <mxCell id="GIZqvgro0386pKt4__yg-314" value="1" style="text;html=1;align=center;verticalAlign=middle;whiteSpace=wrap;rounded=0;fontSize=10;fontColor=#6c8ebf;fontStyle=1" vertex="1" parent="1">
          <mxGeometry x="463" y="750" width="20" height="10" as="geometry" />
        </mxCell>
        <mxCell id="GIZqvgro0386pKt4__yg-315" value="0" style="text;html=1;align=center;verticalAlign=middle;whiteSpace=wrap;rounded=0;fontSize=10;fontColor=#6c8ebf;fontStyle=1" vertex="1" parent="1">
          <mxGeometry x="503" y="750" width="20" height="10" as="geometry" />
        </mxCell>
        <mxCell id="GIZqvgro0386pKt4__yg-316" value="1" style="text;html=1;align=center;verticalAlign=middle;whiteSpace=wrap;rounded=0;fontSize=10;fontColor=#6c8ebf;fontStyle=1" vertex="1" parent="1">
          <mxGeometry x="543" y="750" width="20" height="10" as="geometry" />
        </mxCell>
        <mxCell id="GIZqvgro0386pKt4__yg-317" value="0" style="text;html=1;align=center;verticalAlign=middle;whiteSpace=wrap;rounded=0;fontSize=10;fontColor=#6c8ebf;fontStyle=1" vertex="1" parent="1">
          <mxGeometry x="583" y="750" width="20" height="10" as="geometry" />
        </mxCell>
        <mxCell id="GIZqvgro0386pKt4__yg-318" value="tCSTM_Valid" style="text;html=1;align=center;verticalAlign=middle;whiteSpace=wrap;rounded=0;fontSize=10;fontColor=#bc5757;" vertex="1" parent="1">
          <mxGeometry x="383" y="437" width="60" height="30" as="geometry" />
        </mxCell>
      </root>
    </mxGraphModel>
  </diagram>
</mxfile>
